<?xml version="1.0" standalone="no"?>
<!DOCTYPE svg PUBLIC "-//W3C//DTD SVG 20010904//EN"
 "http://www.w3.org/TR/2001/REC-SVG-20010904/DTD/svg10.dtd">
<svg version="1.0" xmlns="http://www.w3.org/2000/svg"
 width="70.000000pt" height="70.000000pt" viewBox="0 0 70.000000 70.000000"
 preserveAspectRatio="xMidYMid meet">
<metadata>
Created by potrace 1.11, written by Peter Selinger 2001-2013
</metadata>
<g transform="translate(0.000000,70.000000) scale(0.100000,-0.100000)"
fill="#000000" stroke="none">
<path d="M68 607 c-20 -17 -41 -42 -47 -54 -7 -13 -11 -94 -11 -208 0 -208 3
-217 72 -261 37 -24 42 -24 269 -24 256 0 267 2 317 69 21 29 22 39 22 235 l0
205 -44 35 -43 36 -240 0 c-177 0 -242 -3 -252 -12 -11 -10 -13 -10 -7 0 11
18 5 15 -36 -21z m505 -103 c6 -10 11 -81 11 -157 1 -111 -2 -143 -14 -156
-13 -14 -42 -17 -215 -16 -125 0 -207 5 -219 11 -15 9 -19 24 -20 78 0 36 2
66 7 66 4 0 4 8 -1 18 -8 17 -7 135 2 158 7 18 29 19 245 18 177 -1 195 -3
204 -20z"/>
<path d="M298 443 c-94 -59 -46 -209 63 -200 83 7 121 71 94 157 -15 47 -110
73 -157 43z"/>
</g>
</svg>
