<svg id="Layer_1" data-name="Layer 1" xmlns="http://www.w3.org/2000/svg" viewBox="0 0 64 64"><defs><style>.cls-1{fill:#7600dd;}.cls-2{fill:#ff1db4;}.cls-3{fill:#cd00ff;}</style></defs><title>Artboard 2 copy</title><path class="cls-1" d="M32,26.2,26.2,32,11.48,17.28a3.48,3.48,0,0,1,0-4.94l.86-.86a3.48,3.48,0,0,1,4.94,0Z"/><path class="cls-1" d="M52.52,51.66l-.86.86a3.48,3.48,0,0,1-4.94,0L32,37.8,37.8,32,52.52,46.72A3.48,3.48,0,0,1,52.52,51.66Z"/><path class="cls-2" d="M26.2,32,32,37.8,17.28,52.52a3.48,3.48,0,0,1-4.94,0l-.86-.86a3.48,3.48,0,0,1,0-4.94Z"/><path class="cls-2" d="M52.52,17.28,37.8,32,32,26.2,46.72,11.48a3.48,3.48,0,0,1,4.94,0l.86.86A3.48,3.48,0,0,1,52.52,17.28Z"/><rect class="cls-3" x="27.9" y="27.9" width="8.2" height="8.2" transform="translate(-13.25 32) rotate(-45)"/></svg>