<svg id="Layer_1" data-name="Layer 1" xmlns="http://www.w3.org/2000/svg" viewBox="0 0 115.44 115.44"><defs><style>.cls-1{fill:#FF1DB4;}</style></defs><title>icon-ig</title><path class="cls-1" d="M94.44,12a9,9,0,0,1,9,9V94.44a9,9,0,0,1-9,9H21a9,9,0,0,1-9-9V21a9,9,0,0,1,9-9H94.44m0-12H21A21,21,0,0,0,0,21V94.44a21,21,0,0,0,21,21H94.44a21,21,0,0,0,21-21V21a21,21,0,0,0-21-21Z"/><path class="cls-1" d="M57.72,37.94A19.78,19.78,0,1,1,37.94,57.72,19.8,19.8,0,0,1,57.72,37.94m0-13A32.78,32.78,0,1,0,90.5,57.72,32.77,32.77,0,0,0,57.72,24.94Z"/><circle class="cls-1" cx="92.62" cy="23.72" r="8.48"/></svg>