<svg id="Layer_1" data-name="Layer 1" xmlns="http://www.w3.org/2000/svg" viewBox="0 0 115.44 115.44"><defs><style>.cls-1{fill:#CD00FF;}</style></defs><title>icon-cv</title><path class="cls-1" d="M94.44,12a9,9,0,0,1,9,9V94.44a9,9,0,0,1-9,9H21a9,9,0,0,1-9-9V21a9,9,0,0,1,9-9H94.44m0-12H21A21,21,0,0,0,0,21V94.44a21,21,0,0,0,21,21H94.44a21,21,0,0,0,21-21V21a21,21,0,0,0-21-21Z"/><path class="cls-1" d="M18.41,50.85c0-11.84,9.09-20.31,21.32-20.31,6.79,0,12.46,2.47,16.16,7l-5.83,5.38a12.65,12.65,0,0,0-9.88-4.6c-7.35,0-12.57,5.16-12.57,12.57s5.22,12.57,12.57,12.57a12.52,12.52,0,0,0,9.88-4.66l5.83,5.39c-3.7,4.54-9.37,7-16.21,7C27.5,71.16,18.41,62.69,18.41,50.85Z"/><path class="cls-1" d="M39.68,73c-13.39,0-23.11-9.32-23.11-22.16s9.74-22.16,23.16-22.16c7.28,0,13.53,2.71,17.58,7.63l1.12,1.35-8.52,7.86-1.25-1.44a10.73,10.73,0,0,0-8.48-4A10.26,10.26,0,0,0,29.46,50.85,10.26,10.26,0,0,0,40.18,61.57a10.6,10.6,0,0,0,8.47-4L49.9,56.1,58.42,64l-1.1,1.34C53.28,70.27,47,73,39.68,73Zm0-40.62c-11.28,0-19.47,7.76-19.47,18.46s8.16,18.46,19.42,18.46c5.61,0,10.28-1.73,13.62-5l-3.16-2.91a14.09,14.09,0,0,1-10,3.91A13.94,13.94,0,0,1,25.77,50.85,13.94,13.94,0,0,1,40.18,36.44a14.22,14.22,0,0,1,10,3.87l3.16-2.92C50,34.15,45.21,32.39,39.73,32.39Z"/><path class="cls-1" d="M96.06,50.85,81.32,84.9H73.54L58.85,50.85h8.51L77.72,75.17,88.23,50.85Z"/><path class="cls-1" d="M82.54,86.74H72.33L56,49H68.58l9.16,21.49L87,49H98.87Zm-7.79-3.69h5.36L93.25,52.7H89.44L77.71,79.85,66.14,52.7H61.66Z"/></svg>