<svg id="Layer_1" data-name="Layer 1" xmlns="http://www.w3.org/2000/svg" viewBox="0 0 115.44 115.44"><defs><style>.cls-1{fill:#7600DD;}</style></defs><title>icon-gh</title><path class="cls-1" d="M94.44,12a9,9,0,0,1,9,9V94.44a9,9,0,0,1-9,9H21a9,9,0,0,1-9-9V21a9,9,0,0,1,9-9H94.44m0-12H21A21,21,0,0,0,0,21V94.44a21,21,0,0,0,21,21H94.44a21,21,0,0,0,21-21V21a21,21,0,0,0-21-21Z"/><path class="cls-1" d="M90.13,57.63c-.73,5.87-2.56,10.72-7.6,14.09-4.34,2.9-11,4.76-16.9,5,7.21,4.11,6.27,21,6.23,23.12,0,.57-.27,6.59-.56,6.59H44.14c-.29,0-.55-6-.56-6.59,0-2.07-1-19,6.23-23.12-5.86-.22-12.56-2.08-16.9-5-5-3.37-6.87-8.22-7.6-14.09C24.68,52.52,25.07,44,30.47,39c0,0-2.19-8.07.81-14,0,0,2.81-.37,7.79,1.72s6.61,4.26,6.61,4.26c2-1,7-1.48,12-1.52s10,.54,12,1.52c0,0,1.63-2.18,6.61-4.26S84.16,25,84.16,25c3,6,.81,14,.81,14C90.37,44,90.76,52.52,90.13,57.63Z"/><path class="cls-1" d="M19.6,74.76s3.74-.66,5.67.43,6.16,7.54,8,8.27,4,2.17,7.37,1.39,11.23-4.41,11.23-4.41l-4.41,10a16.76,16.76,0,0,1-6.94,1.45c-4.05,0-9.42-1.27-11.23-3.87S26.42,81,24.67,79.23,19.6,74.76,19.6,74.76Z"/></svg>