<svg id="Layer_1" data-name="Layer 1" xmlns="http://www.w3.org/2000/svg" viewBox="0 0 115.44 115.44"><defs><style>.cls-1{fill:#6b70ee;}</style></defs><title>icon-in</title><path class="cls-1" d="M94.44,12a9,9,0,0,1,9,9V94.44a9,9,0,0,1-9,9H21a9,9,0,0,1-9-9V21a9,9,0,0,1,9-9H94.44m0-12H21A21,21,0,0,0,0,21V94.44a21,21,0,0,0,21,21H94.44a21,21,0,0,0,21-21V21a21,21,0,0,0-21-21Z"/><path class="cls-1" d="M45.31,45.3H61.85v7.19l.13.06a3.17,3.17,0,0,0,.28-.36,12.14,12.14,0,0,1,5.47-5.3,16.53,16.53,0,0,1,5.9-1.51,28.43,28.43,0,0,1,6.32.17,15.86,15.86,0,0,1,9.67,4.51,17.37,17.37,0,0,1,4.08,7.67,35,35,0,0,1,1.23,8.92C95,76,95,85.38,95,94.75c0,.08,0,.16,0,.27H78.45v-.51q0-12,0-24.09a20.4,20.4,0,0,0-.65-5.82,6.13,6.13,0,0,0-5.89-4.78,11.44,11.44,0,0,0-5.06.57,6.93,6.93,0,0,0-4.24,4.92,23.52,23.52,0,0,0-.73,6.52c0,7.56,0,15.12,0,22.68V95H45.31Z"/><path class="cls-1" d="M20.44,45.31H37V95H20.44Z"/><path class="cls-1" d="M28.69,20.42a8.29,8.29,0,1,1-8.28,8.25A8.26,8.26,0,0,1,28.69,20.42Z"/></svg>