<svg xmlns="http://www.w3.org/2000/svg" viewBox="0 0 116 72.75"><defs><style>.cls-1{fill:#ff1db4;}.cls-2{fill:#cd00ff;}</style></defs><title>logo</title><g id="Layer_2" data-name="Layer 2"><g id="Layer_1-2" data-name="Layer 1"><path class="cls-1" d="M101,0H79.36A15.09,15.09,0,0,0,65.18,10a6,6,0,0,1-5.69,4h-3a6,6,0,0,1-5.69-4A15.1,15.1,0,0,0,36.64,0H15.05A15.07,15.07,0,0,0,0,15.05v23.2a4.25,4.25,0,0,0,8.5,0V15.05A6.56,6.56,0,0,1,15.05,8.5H36.64a6.57,6.57,0,0,1,6.17,4.35,14.57,14.57,0,0,0,13.7,9.65h3a14.57,14.57,0,0,0,13.7-9.65A6.57,6.57,0,0,1,79.36,8.5H101a6.56,6.56,0,0,1,6.55,6.55v23.2a4.25,4.25,0,0,0,8.5,0V15.05A15.07,15.07,0,0,0,101,0Z"/><path class="cls-2" d="M104,27.75H74a12,12,0,0,0-12,11.11H54A12,12,0,0,0,42,27.75H12a12,12,0,0,0-12,12v21a12,12,0,0,0,12,12H42a12,12,0,0,0,12-12V46.64h8V60.75a12,12,0,0,0,12,12h30a12,12,0,0,0,12-12v-21A12,12,0,0,0,104,27.75Zm-58.5,33a3.54,3.54,0,0,1-3.5,3.5H12a3.54,3.54,0,0,1-3.5-3.5v-21A3.54,3.54,0,0,1,12,36.26H42a3.54,3.54,0,0,1,3.5,3.49Zm62,0a3.54,3.54,0,0,1-3.5,3.5H74a3.54,3.54,0,0,1-3.5-3.5v-21A3.54,3.54,0,0,1,74,36.26h30a3.54,3.54,0,0,1,3.5,3.49Z"/><circle class="cls-2" cx="27" cy="50.25" r="8.5"/><circle class="cls-2" cx="89.5" cy="50.25" r="8.5"/></g></g></svg>